<mxfile host="app.diagrams.net" modified="2024-03-15T06:38:06.121Z" agent="Mozilla/5.0 (X11; Linux x86_64; rv:109.0) Gecko/20100101 Firefox/117.0" etag="7wztKe-vhSk6DT6VUaGa" version="24.0.6" type="device">
  <diagram name="Page-1" id="e7e014a7-5840-1c2e-5031-d8a46d1fe8dd">
    <mxGraphModel dx="1406" dy="729" grid="1" gridSize="10" guides="1" tooltips="1" connect="1" arrows="1" fold="1" page="1" pageScale="1" pageWidth="827" pageHeight="827" background="none" math="0" shadow="0">
      <root>
        <mxCell id="0" />
        <mxCell id="1" parent="0" />
        <mxCell id="VHjH__5dP5TwFhIPcwZf-99" value="" style="rounded=0;whiteSpace=wrap;html=1;" vertex="1" parent="1">
          <mxGeometry x="256" y="156" width="377" height="205" as="geometry" />
        </mxCell>
        <mxCell id="VHjH__5dP5TwFhIPcwZf-41" value="Читатель" style="shape=umlActor;verticalLabelPosition=bottom;verticalAlign=top;html=1;" vertex="1" parent="1">
          <mxGeometry x="166" y="266" width="30" height="60" as="geometry" />
        </mxCell>
        <mxCell id="VHjH__5dP5TwFhIPcwZf-45" value="Прочитать статью" style="ellipse;whiteSpace=wrap;html=1;" vertex="1" parent="1">
          <mxGeometry x="273" y="241" width="110" height="40" as="geometry" />
        </mxCell>
        <mxCell id="VHjH__5dP5TwFhIPcwZf-46" value="Найти статью" style="ellipse;whiteSpace=wrap;html=1;" vertex="1" parent="1">
          <mxGeometry x="493" y="186" width="110" height="40" as="geometry" />
        </mxCell>
        <mxCell id="VHjH__5dP5TwFhIPcwZf-48" value="Ознакомиться с источниками" style="ellipse;whiteSpace=wrap;html=1;" vertex="1" parent="1">
          <mxGeometry x="503" y="256" width="110" height="55" as="geometry" />
        </mxCell>
        <mxCell id="VHjH__5dP5TwFhIPcwZf-60" value="" style="endArrow=none;html=1;rounded=0;entryX=0;entryY=0.5;entryDx=0;entryDy=0;" edge="1" parent="1" target="VHjH__5dP5TwFhIPcwZf-45">
          <mxGeometry width="50" height="50" relative="1" as="geometry">
            <mxPoint x="196" y="266" as="sourcePoint" />
            <mxPoint x="246" y="216" as="targetPoint" />
          </mxGeometry>
        </mxCell>
        <mxCell id="VHjH__5dP5TwFhIPcwZf-100" value="&amp;lt;&amp;lt;include&amp;gt;&amp;gt;" style="html=1;verticalAlign=bottom;endArrow=open;dashed=1;endSize=8;curved=0;rounded=0;exitX=1;exitY=0;exitDx=0;exitDy=0;entryX=0;entryY=0.5;entryDx=0;entryDy=0;" edge="1" parent="1" source="VHjH__5dP5TwFhIPcwZf-45" target="VHjH__5dP5TwFhIPcwZf-46">
          <mxGeometry relative="1" as="geometry">
            <mxPoint x="493" y="251" as="sourcePoint" />
            <mxPoint x="413" y="251" as="targetPoint" />
          </mxGeometry>
        </mxCell>
        <mxCell id="VHjH__5dP5TwFhIPcwZf-101" value="&amp;lt;&amp;lt;extend&amp;gt;&amp;gt;" style="html=1;verticalAlign=bottom;endArrow=open;dashed=1;endSize=8;curved=0;rounded=0;exitX=0;exitY=0.5;exitDx=0;exitDy=0;entryX=1;entryY=0.5;entryDx=0;entryDy=0;" edge="1" parent="1" source="VHjH__5dP5TwFhIPcwZf-48" target="VHjH__5dP5TwFhIPcwZf-45">
          <mxGeometry relative="1" as="geometry">
            <mxPoint x="383" y="295.65999999999997" as="sourcePoint" />
            <mxPoint x="457" y="295.65999999999997" as="targetPoint" />
          </mxGeometry>
        </mxCell>
        <mxCell id="VHjH__5dP5TwFhIPcwZf-105" value="" style="rounded=0;whiteSpace=wrap;html=1;" vertex="1" parent="1">
          <mxGeometry x="256" y="421" width="377" height="205" as="geometry" />
        </mxCell>
        <mxCell id="VHjH__5dP5TwFhIPcwZf-106" value="Редактор" style="shape=umlActor;verticalLabelPosition=bottom;verticalAlign=top;html=1;" vertex="1" parent="1">
          <mxGeometry x="166" y="531" width="30" height="60" as="geometry" />
        </mxCell>
        <mxCell id="VHjH__5dP5TwFhIPcwZf-107" value="Редактировать статью" style="ellipse;whiteSpace=wrap;html=1;" vertex="1" parent="1">
          <mxGeometry x="273" y="506" width="110" height="40" as="geometry" />
        </mxCell>
        <mxCell id="VHjH__5dP5TwFhIPcwZf-108" value="Загрузить медиа-файл" style="ellipse;whiteSpace=wrap;html=1;" vertex="1" parent="1">
          <mxGeometry x="493" y="440" width="117" height="51" as="geometry" />
        </mxCell>
        <mxCell id="VHjH__5dP5TwFhIPcwZf-109" value="Обсудить правки" style="ellipse;whiteSpace=wrap;html=1;" vertex="1" parent="1">
          <mxGeometry x="503" y="521" width="110" height="55" as="geometry" />
        </mxCell>
        <mxCell id="VHjH__5dP5TwFhIPcwZf-110" value="" style="endArrow=none;html=1;rounded=0;entryX=0;entryY=0.5;entryDx=0;entryDy=0;" edge="1" parent="1" target="VHjH__5dP5TwFhIPcwZf-107">
          <mxGeometry width="50" height="50" relative="1" as="geometry">
            <mxPoint x="196" y="531" as="sourcePoint" />
            <mxPoint x="246" y="481" as="targetPoint" />
          </mxGeometry>
        </mxCell>
        <mxCell id="VHjH__5dP5TwFhIPcwZf-111" value="&amp;lt;&amp;lt;include&amp;gt;&amp;gt;" style="html=1;verticalAlign=bottom;endArrow=open;dashed=1;endSize=8;curved=0;rounded=0;exitX=1;exitY=0;exitDx=0;exitDy=0;entryX=0;entryY=0.5;entryDx=0;entryDy=0;" edge="1" parent="1" source="VHjH__5dP5TwFhIPcwZf-107" target="VHjH__5dP5TwFhIPcwZf-108">
          <mxGeometry relative="1" as="geometry">
            <mxPoint x="493" y="516" as="sourcePoint" />
            <mxPoint x="413" y="516" as="targetPoint" />
          </mxGeometry>
        </mxCell>
        <mxCell id="VHjH__5dP5TwFhIPcwZf-112" value="&amp;lt;&amp;lt;extend&amp;gt;&amp;gt;" style="html=1;verticalAlign=bottom;endArrow=open;dashed=1;endSize=8;curved=0;rounded=0;exitX=0;exitY=0.5;exitDx=0;exitDy=0;entryX=1;entryY=0.5;entryDx=0;entryDy=0;" edge="1" parent="1" source="VHjH__5dP5TwFhIPcwZf-109" target="VHjH__5dP5TwFhIPcwZf-107">
          <mxGeometry relative="1" as="geometry">
            <mxPoint x="383" y="560.66" as="sourcePoint" />
            <mxPoint x="457" y="560.66" as="targetPoint" />
          </mxGeometry>
        </mxCell>
      </root>
    </mxGraphModel>
  </diagram>
</mxfile>
